<?xml version="1.0" encoding="UTF-8"?>
<svg xmlns="http://www.w3.org/2000/svg" viewBox="0 0 304.14 49.78">
  <defs>
    <style>
      .cls-1 {
        fill: none;
        stroke-width: .5px;
      }

      .cls-1, .cls-2 {
        stroke: #264b9b;
        stroke-linecap: round;
        stroke-linejoin: round;
      }

      .cls-2 {
        fill: #264b9b;
        stroke-width: .75px;
      }

      .cls-3 {
        fill: #fff;
      }

      .cls-3, .cls-4 {
        stroke-width: 0px;
      }

      .cls-4 {
        fill: #f7af24;
      }
    </style>
  </defs>
  <g id="Layer_2" data-name="Layer 2">
    <g>
      <path class="cls-4" d="M49.04,24.89c0-3.46-5.97-4.76-7.24-7.75-1.1-2.58,2.65-6.92.79-8.95-2.23-2.44-6.88.58-9.92-.79-3.04-1.38-4.47-7.15-8.02-7.15-4.07,0-5.36,4.5-8.85,6.57-2.94,1.74-7.64-.85-9.85,2.25-1.45,2.03,1.37,6.13.31,8.9S.25,22.2.25,24.89c0,3.06,4.85,3.16,5.87,5.87s-1.82,8.02.02,10.18c2.14,2.51,6.69-.8,9.66.68,3.25,1.62,4.98,7.92,8.85,7.92,4.42,0,5.83-5.84,9.41-7.92,2.62-1.52,7.67,1.14,9.56-1.22,1.91-2.38-1.5-6.64-.57-9.63.73-2.33,6-3.29,6-5.87Z"/>
      <path class="cls-1" d="M49.04,24.89c0-3.46-5.97-4.76-7.24-7.75-1.1-2.58,2.65-6.92.79-8.95-2.23-2.44-6.88.58-9.92-.79-3.04-1.38-4.47-7.15-8.02-7.15-4.07,0-5.36,4.5-8.85,6.57-2.94,1.74-7.64-.85-9.85,2.25-1.45,2.03,1.37,6.13.31,8.9S.25,22.2.25,24.89c0,3.06,4.85,3.16,5.87,5.87s-1.82,8.02.02,10.18c2.14,2.51,6.69-.8,9.66.68,3.25,1.62,4.98,7.92,8.85,7.92,4.42,0,5.83-5.84,9.41-7.92,2.62-1.52,7.67,1.14,9.56-1.22,1.91-2.38-1.5-6.64-.57-9.63.73-2.33,6-3.29,6-5.87Z"/>
    </g>
    <g>
      <ellipse class="cls-3" cx="24.64" cy="24.89" rx="7.32" ry="7.39"/>
      <ellipse class="cls-1" cx="24.64" cy="24.89" rx="7.32" ry="7.39"/>
    </g>
  </g>
  <g id="Layer_1_copy" data-name="Layer 1 copy">
    <g>
      <path class="cls-2" d="M58.67,37.06v-.9c2.82,0,3.43-.69,3.43-2.09V14.43c0-1.99-.54-2.42-3.43-2.42v-.9h9.17v.9c-2.71,0-3.46.43-3.46,2.34v11.19l12.35-11.15c.29-.33.5-.65.5-1.01,0-.72-.9-1.37-3.46-1.37v-.9h8.81v.9c-1.55,0-2.49.69-4.15,2.24l-7.29,6.61,9.02,13.21c1.08,1.73,1.44,2.09,3.97,2.09v.9h-9.67v-.9c2.17,0,3.5-.14,3.5-.97,0-.18-.11-.43-.25-.72l-8.19-12.16-5.13,4.69v7.11c0,1.37.61,2.06,3.46,2.06v.9h-9.17Z"/>
      <path class="cls-2" d="M87.77,37.06v-.9c1.44,0,2.38-.47,2.38-1.88v-11.08c0-1.26-.36-1.66-2.2-1.66l-.18-.54,4.55-1.77v4.48c2.24-1.91,5.02-4.48,7.4-4.48,1.05,0,1.88.87,1.88,1.7s-.83,1.66-1.88,1.66c-1.19,0-1.44-.98-2.27-.98-1.05,0-3.29,1.88-5.13,3.39v9.28c0,1.41.54,1.88,2.42,1.88v.9h-6.96Z"/>
      <path class="cls-2" d="M105.8,37.06v-.9c1.66,0,2.38-.32,2.38-1.77v-11.01c0-.94-.4-1.62-2.42-1.62l-.11-.54,4.69-1.62v14.8c0,1.44.54,1.77,2.42,1.77v.9h-6.96ZM111.21,12.29c0,.9-.65,1.81-1.91,1.81s-1.88-.9-1.88-1.81.58-1.8,1.88-1.8,1.91.9,1.91,1.8Z"/>
      <path class="cls-2" d="M118.42,31.86c1.62,2.2,3.93,4.8,7.94,4.8,2.38,0,4.19-1.37,4.19-3.72,0-1.66-1.3-2.56-5.09-3.75-5.63-1.73-6.93-3.29-6.93-5.63,0-2.2,2.17-3.97,5.63-3.97,1.99,0,3.14.65,3.86.65.14,0,.25-.04.36-.07l1.34-.61,2.06,5.16-.61.29c-.79-1.44-3.5-4.51-7-4.51-2.24,0-3.79,1.08-3.79,3.07,0,1.77,1.81,2.52,5.09,3.54,4.95,1.51,6.89,2.96,6.89,5.85,0,3.21-3,4.69-5.99,4.69-2.06,0-3.25-.72-4.26-.72-.18,0-.36,0-.54.07l-1.48.61-2.09-5.52.43-.21Z"/>
      <path class="cls-2" d="M137.02,21.03v-.72c2.49-.22,3.97-2.06,4.15-6.28h.76v5.95h4.87v1.05h-4.87v13.03c0,1.33.87,2.02,2.35,2.02,1.12,0,2.31-.79,3.21-1.88l.43.32c-1.19,2.2-2.71,3.1-4.62,3.1-2.06,0-3.54-1.3-3.54-4.08v-12.53h-2.74Z"/>
      <path class="cls-2" d="M152.03,37.06v-.9c1.66,0,2.38-.32,2.38-1.77v-11.01c0-.94-.4-1.62-2.42-1.62l-.11-.54,4.69-1.62v14.8c0,1.44.54,1.77,2.42,1.77v.9h-6.96ZM157.44,12.29c0,.9-.65,1.81-1.91,1.81s-1.88-.9-1.88-1.81.58-1.8,1.88-1.8,1.91.9,1.91,1.8Z"/>
      <path class="cls-2" d="M163.09,37.06v-.9c1.8,0,2.38-.54,2.38-2.13v-10.54c0-1.48-.4-1.91-2.28-1.91l-.11-.58,4.55-1.41v3.18c1.59-1.33,3.64-3.14,6.61-3.14s4.58,1.91,4.58,5.12v9.28c0,1.59.69,2.13,2.42,2.13v.9h-6.97v-.9c1.73,0,2.38-.54,2.38-2.13v-9.38c0-2.02-.69-3.43-3.1-3.43s-4.15,1.08-5.92,2.67v10.14c0,1.59.72,2.13,2.42,2.13v.9h-6.96Z"/>
      <path class="cls-2" d="M197.81,37.06v-.9c2.45,0,3.43-.76,3.43-2.49V14.32c0-1.66-.98-2.31-3.43-2.31v-.9h18.95l2.53,6.14-.54.36c-1.8-2.2-3.25-5.59-8.84-5.59h-3.54c-1.88,0-2.85.65-2.85,2.31v8.7h5.49c2.52,0,3.9-1.08,3.9-4.51h.87v10.11h-.87c0-3.21-1.37-4.62-3.9-4.62h-5.49v9.67c0,1.73.98,2.49,2.89,2.49h3.39c4.19,0,6.75-1.73,9.64-5.74l.65.29-2.45,6.35h-19.82Z"/>
      <path class="cls-2" d="M224.07,37.06v-.9c1.44,0,2.38-.47,2.38-1.88v-11.08c0-1.26-.36-1.66-2.2-1.66l-.18-.54,4.55-1.77v4.48c2.24-1.91,5.02-4.48,7.4-4.48,1.05,0,1.88.87,1.88,1.7s-.83,1.66-1.88,1.66c-1.19,0-1.44-.98-2.27-.98-1.05,0-3.29,1.88-5.13,3.39v9.28c0,1.41.54,1.88,2.42,1.88v.9h-6.96Z"/>
      <path class="cls-2" d="M241.51,37.06v-.9c1.63,0,2.38-.54,2.38-2.09V14.68c0-1.37-.76-1.7-2.2-1.7l-.18-.5,4.55-1.66v18.48l7.69-6.75c.36-.33.51-.61.51-.87,0-.61-.98-.97-2.42-.97v-.9h7.22v.9c-1.62,0-2.56.61-3.72,1.7l-4.55,4.01,6.03,8.16c.8,1.05,1.81,1.59,3.39,1.59v.9h-8.05v-.9c1.37,0,2.31-.29,2.31-.97,0-.22-.11-.47-.32-.8l-4.8-6.68-3.28,2.89v3.46c0,1.55.72,2.09,2.42,2.09v.9h-6.97Z"/>
      <path class="cls-2" d="M266.79,28c0,6.28,3.14,8.37,6.61,8.37,2.81,0,4.98-1.15,6.79-3.43l.51.43c-1.59,2.35-3.72,4.26-7.8,4.26-5.02,0-8.41-3.61-8.41-9.06,0-5.02,3.25-8.99,8.23-8.99s7.72,3.07,7.72,8.41h-13.64ZM278.09,26.99c-.22-4.51-2.17-6.53-5.42-6.53-3.07,0-5.66,2.78-5.88,6.53h11.3Z"/>
      <path class="cls-2" d="M285.61,37.06v-.9c1.8,0,2.38-.54,2.38-2.13v-10.54c0-1.48-.4-1.91-2.28-1.91l-.11-.58,4.55-1.41v3.18c1.59-1.33,3.64-3.14,6.61-3.14s4.58,1.91,4.58,5.12v9.28c0,1.59.69,2.13,2.42,2.13v.9h-6.97v-.9c1.73,0,2.38-.54,2.38-2.13v-9.38c0-2.02-.69-3.43-3.1-3.43s-4.15,1.08-5.92,2.67v10.14c0,1.59.72,2.13,2.42,2.13v.9h-6.96Z"/>
    </g>
  </g>
</svg>